<mxfile host="app.diagrams.net" modified="2023-05-11T03:58:55.197Z" agent="Mozilla/5.0 (Windows NT 10.0; Win64; x64) AppleWebKit/537.36 (KHTML, like Gecko) Chrome/112.0.0.0 Safari/537.36" etag="_FBJfCdjFSzHxwH3A6DW" version="21.2.9" type="device">
  <diagram name="Page-1" id="u89Svo_oII9miTw4j5U4">
    <mxGraphModel dx="1290" dy="577" grid="0" gridSize="10" guides="1" tooltips="1" connect="1" arrows="1" fold="1" page="0" pageScale="1" pageWidth="850" pageHeight="1100" math="0" shadow="0">
      <root>
        <mxCell id="0" />
        <mxCell id="1" parent="0" />
        <mxCell id="k02kRNxkQUGaLdqgRuOq-10" value="" style="edgeStyle=orthogonalEdgeStyle;rounded=0;orthogonalLoop=1;jettySize=auto;html=1;" parent="1" source="k02kRNxkQUGaLdqgRuOq-1" target="k02kRNxkQUGaLdqgRuOq-2" edge="1">
          <mxGeometry relative="1" as="geometry" />
        </mxCell>
        <mxCell id="k02kRNxkQUGaLdqgRuOq-1" value="&lt;b&gt;S0&lt;/b&gt;&lt;br&gt;ER1 = 1&lt;br&gt;ER2 = 1&lt;br&gt;ER3 = 0&lt;br&gt;ER4 = 0&lt;br&gt;ER5 = 0&lt;br&gt;CTL_AU1[1..0] = XX&lt;br style=&quot;border-color: var(--border-color);&quot;&gt;CTL_AU2[1..0] = XX&lt;br&gt;ET1 = 0&lt;br&gt;ET2 = 0&lt;br&gt;ET3 = 0&lt;br&gt;ET4 = 1&lt;br&gt;ET5 = 0&lt;br&gt;ET6 = 0&lt;br&gt;ET7 = 1&lt;br&gt;ET8 = 0&lt;br&gt;ET9 = 0&lt;br&gt;ET10 = 0&lt;br&gt;ET11 = 0&lt;br&gt;ET12 = 0&lt;br&gt;DONE = 0&amp;nbsp;" style="ellipse;whiteSpace=wrap;html=1;" parent="1" vertex="1">
          <mxGeometry x="40" y="120" width="160" height="320" as="geometry" />
        </mxCell>
        <mxCell id="k02kRNxkQUGaLdqgRuOq-11" value="" style="edgeStyle=orthogonalEdgeStyle;rounded=0;orthogonalLoop=1;jettySize=auto;html=1;" parent="1" source="k02kRNxkQUGaLdqgRuOq-2" target="k02kRNxkQUGaLdqgRuOq-5" edge="1">
          <mxGeometry relative="1" as="geometry" />
        </mxCell>
        <mxCell id="k02kRNxkQUGaLdqgRuOq-2" value="&lt;b&gt;S1&lt;/b&gt;&lt;br&gt;ER1 = 1&lt;br&gt;ER2 = 0&lt;br&gt;ER3 = 0&lt;br&gt;ER4 = 0&lt;br&gt;ER5 = 0&lt;br&gt;CTL_AU1[1..0] = 01&lt;br style=&quot;border-color: var(--border-color);&quot;&gt;CTL_AU2[1..0] = XX&lt;br&gt;ET1 = 0&lt;br&gt;ET2 = 1&lt;br&gt;ET3 = 0&lt;br&gt;ET4 = 0&lt;br&gt;ET5 = 1&lt;br&gt;ET6 = 0&lt;br&gt;ET7 = 0&lt;br&gt;ET8 = 0&lt;br&gt;ET9 = 0&lt;br&gt;ET10 = 0&lt;br&gt;ET11 = 0&lt;br&gt;ET12 = 0&lt;br&gt;DONE = 0&amp;nbsp;" style="ellipse;whiteSpace=wrap;html=1;" parent="1" vertex="1">
          <mxGeometry x="280" y="120" width="160" height="320" as="geometry" />
        </mxCell>
        <mxCell id="k02kRNxkQUGaLdqgRuOq-14" value="" style="edgeStyle=orthogonalEdgeStyle;rounded=0;orthogonalLoop=1;jettySize=auto;html=1;" parent="1" source="k02kRNxkQUGaLdqgRuOq-3" target="k02kRNxkQUGaLdqgRuOq-8" edge="1">
          <mxGeometry relative="1" as="geometry" />
        </mxCell>
        <mxCell id="k02kRNxkQUGaLdqgRuOq-3" value="&lt;b&gt;S6&lt;/b&gt;&lt;br&gt;ER1 = 1&lt;br&gt;ER2 = 0&lt;br&gt;ER3 = 1&lt;br&gt;ER4 = 0&lt;br&gt;ER5 = 0&lt;br&gt;CTL_AU1[1..0] = 01&lt;br style=&quot;border-color: var(--border-color);&quot;&gt;CTL_AU2[1..0] = 00&lt;br&gt;ET1 = 0&lt;br&gt;ET2 = 1&lt;br&gt;ET3 = 0&lt;br&gt;ET4 = 0&lt;br&gt;ET5 = 1&lt;br&gt;ET6 = 0&lt;br&gt;ET7 = 0&lt;br&gt;ET8 = 0&lt;br&gt;ET9 = 0&lt;br&gt;ET10 = 1&lt;br&gt;ET11 = 1&lt;br&gt;ET12 = 1&lt;br&gt;DONE =&amp;nbsp; 0" style="ellipse;whiteSpace=wrap;html=1;" parent="1" vertex="1">
          <mxGeometry x="760" y="641" width="160" height="320" as="geometry" />
        </mxCell>
        <mxCell id="k02kRNxkQUGaLdqgRuOq-26" value="" style="edgeStyle=orthogonalEdgeStyle;rounded=0;orthogonalLoop=1;jettySize=auto;html=1;" parent="1" source="k02kRNxkQUGaLdqgRuOq-4" target="k02kRNxkQUGaLdqgRuOq-25" edge="1">
          <mxGeometry relative="1" as="geometry" />
        </mxCell>
        <mxCell id="k02kRNxkQUGaLdqgRuOq-4" value="&lt;b&gt;S3&lt;/b&gt;&lt;br&gt;ER1 = 0&lt;br&gt;ER2 = 0&lt;br&gt;ER3 = 0&lt;br&gt;ER4 = 0&lt;br&gt;ER5 = 1&lt;br&gt;CTL_AU1[1..0] = 10&lt;br style=&quot;border-color: var(--border-color);&quot;&gt;CTL_AU2[1..0] = XX&lt;br&gt;ET1 = 1&lt;br&gt;ET2 = 0&lt;br&gt;ET3 = 1&lt;br&gt;ET4 = 0&lt;br&gt;ET5 = 0&lt;br&gt;ET6 = 0&lt;br&gt;ET7 = 0&lt;br&gt;ET8 = 0&lt;br&gt;ET9 = 0&lt;br&gt;ET10 = 0&lt;br&gt;ET11 = 0&lt;br&gt;ET12 = 0&lt;br&gt;DONE = 0&amp;nbsp;" style="ellipse;whiteSpace=wrap;html=1;" parent="1" vertex="1">
          <mxGeometry x="760" y="120" width="160" height="320" as="geometry" />
        </mxCell>
        <mxCell id="k02kRNxkQUGaLdqgRuOq-12" value="" style="edgeStyle=orthogonalEdgeStyle;rounded=0;orthogonalLoop=1;jettySize=auto;html=1;" parent="1" source="k02kRNxkQUGaLdqgRuOq-5" target="k02kRNxkQUGaLdqgRuOq-4" edge="1">
          <mxGeometry relative="1" as="geometry" />
        </mxCell>
        <mxCell id="k02kRNxkQUGaLdqgRuOq-5" value="&lt;b&gt;S2&lt;/b&gt;&lt;br&gt;ER1 = 0&lt;br&gt;ER2 = 1&lt;br&gt;ER3 = 0&lt;br&gt;ER4 = 0&lt;br&gt;ER5 = 0&lt;br&gt;CTL_AU1[1..0] = 01&lt;br style=&quot;border-color: var(--border-color);&quot;&gt;CTL_AU2[1..0] = XX&lt;br&gt;ET1 = 0&lt;br&gt;ET2 = 0&lt;br&gt;ET3 = 1&lt;br&gt;ET4 = 0&lt;br&gt;ET5 = 0&lt;br&gt;ET6 = 1&lt;br&gt;ET7 = 0&lt;br&gt;ET8 = 0&lt;br&gt;ET9 = 0&lt;br&gt;ET10 = 0&lt;br&gt;ET11 = 0&lt;br&gt;ET12 = 0&lt;br&gt;DONE = 0&amp;nbsp;" style="ellipse;whiteSpace=wrap;html=1;" parent="1" vertex="1">
          <mxGeometry x="520" y="120" width="160" height="320" as="geometry" />
        </mxCell>
        <mxCell id="k02kRNxkQUGaLdqgRuOq-6" value="&lt;b&gt;S9&lt;/b&gt;&lt;br&gt;ER1 = 0&lt;br&gt;ER2 = 0&lt;br&gt;ER3 = 1&lt;br&gt;ER4 = 1&lt;br&gt;ER5 = 0&lt;br&gt;CTL_AU1[1..0] = 11&lt;br style=&quot;border-color: var(--border-color);&quot;&gt;CTL_AU2[1..0] = XX&lt;br&gt;ET1 = 1&lt;br&gt;ET2 = 0&lt;br&gt;ET3 = 1&lt;br&gt;ET4 = 0&lt;br&gt;ET5 = 0&lt;br&gt;ET6 = 0&lt;br&gt;ET7 = 0&lt;br&gt;ET8 = 1&lt;br&gt;ET9 = 0&lt;br&gt;ET10 = 0&lt;br&gt;ET11 = 0&lt;br&gt;ET12 = 0&lt;br&gt;DONE = 0&amp;nbsp;" style="ellipse;whiteSpace=wrap;html=1;" parent="1" vertex="1">
          <mxGeometry x="40" y="641" width="160" height="320" as="geometry" />
        </mxCell>
        <mxCell id="k02kRNxkQUGaLdqgRuOq-16" value="" style="edgeStyle=orthogonalEdgeStyle;rounded=0;orthogonalLoop=1;jettySize=auto;html=1;" parent="1" source="k02kRNxkQUGaLdqgRuOq-7" target="k02kRNxkQUGaLdqgRuOq-6" edge="1">
          <mxGeometry relative="1" as="geometry" />
        </mxCell>
        <mxCell id="k02kRNxkQUGaLdqgRuOq-7" value="&lt;b&gt;S8&lt;/b&gt;&lt;br&gt;ER1 = 0&lt;br&gt;ER2 = 0&lt;br&gt;ER3 = 0&lt;br&gt;ER4 = 0&lt;br&gt;ER5 = 1&lt;br&gt;CTL_AU1[1..0] = 10&lt;br style=&quot;border-color: var(--border-color);&quot;&gt;CTL_AU2[1..0] = XX&lt;br&gt;ET1 = 1&lt;br&gt;ET2 = 0&lt;br&gt;ET3 = 1&lt;br&gt;ET4 = 0&lt;br&gt;ET5 = 0&lt;br&gt;ET6 = 0&lt;br&gt;ET7 = 0&lt;br&gt;ET8 = 0&lt;br&gt;ET9 = 0&lt;br&gt;ET10 = 0&lt;br&gt;ET11 = 0&lt;br&gt;ET12 = 0&lt;br&gt;DONE = 1&amp;nbsp;" style="ellipse;whiteSpace=wrap;html=1;" parent="1" vertex="1">
          <mxGeometry x="280" y="641" width="160" height="320" as="geometry" />
        </mxCell>
        <mxCell id="k02kRNxkQUGaLdqgRuOq-15" value="" style="edgeStyle=orthogonalEdgeStyle;rounded=0;orthogonalLoop=1;jettySize=auto;html=1;" parent="1" source="k02kRNxkQUGaLdqgRuOq-8" target="k02kRNxkQUGaLdqgRuOq-7" edge="1">
          <mxGeometry relative="1" as="geometry" />
        </mxCell>
        <mxCell id="k02kRNxkQUGaLdqgRuOq-8" value="&lt;b&gt;S7&lt;/b&gt;&lt;br&gt;ER1 = 0&lt;br&gt;ER2 = 1&lt;br&gt;ER3 = 1&lt;br&gt;ER4 = 0&lt;br&gt;ER5 = 0&lt;br&gt;CTL_AU1[1..0] = 01&lt;br style=&quot;border-color: var(--border-color);&quot;&gt;CTL_AU2[1..0] = 11&lt;br&gt;ET1 = 0&lt;br&gt;ET2 = 0&lt;br&gt;ET3 = 1&lt;br&gt;ET4 = 0&lt;br&gt;ET5 = 0&lt;br&gt;ET6 = 1&lt;br&gt;ET7 = 0&lt;br&gt;ET8 = 0&lt;br&gt;ET9 = 1&lt;br&gt;ET10 = 0&lt;br&gt;ET11 = 1&lt;br&gt;ET12 = 1&lt;br&gt;DONE =&amp;nbsp; 0" style="ellipse;whiteSpace=wrap;html=1;" parent="1" vertex="1">
          <mxGeometry x="520" y="641" width="160" height="320" as="geometry" />
        </mxCell>
        <mxCell id="k02kRNxkQUGaLdqgRuOq-19" value="" style="curved=1;endArrow=classic;html=1;rounded=0;exitX=0;exitY=0;exitDx=0;exitDy=0;entryX=0.5;entryY=0;entryDx=0;entryDy=0;" parent="1" source="k02kRNxkQUGaLdqgRuOq-1" target="k02kRNxkQUGaLdqgRuOq-1" edge="1">
          <mxGeometry width="50" height="50" relative="1" as="geometry">
            <mxPoint x="-20" y="180" as="sourcePoint" />
            <mxPoint x="30" y="130" as="targetPoint" />
            <Array as="points">
              <mxPoint x="30" y="167" />
              <mxPoint y="120" />
              <mxPoint x="30" y="70" />
              <mxPoint x="110" y="70" />
            </Array>
          </mxGeometry>
        </mxCell>
        <mxCell id="k02kRNxkQUGaLdqgRuOq-20" value="START = 0" style="text;html=1;strokeColor=none;fillColor=none;align=center;verticalAlign=middle;whiteSpace=wrap;rounded=0;" parent="1" vertex="1">
          <mxGeometry y="90" width="70" height="30" as="geometry" />
        </mxCell>
        <mxCell id="k02kRNxkQUGaLdqgRuOq-21" value="START = 1" style="text;html=1;strokeColor=none;fillColor=none;align=center;verticalAlign=middle;whiteSpace=wrap;rounded=0;" parent="1" vertex="1">
          <mxGeometry x="200" y="253" width="70" height="30" as="geometry" />
        </mxCell>
        <mxCell id="k02kRNxkQUGaLdqgRuOq-28" value="" style="edgeStyle=orthogonalEdgeStyle;rounded=0;orthogonalLoop=1;jettySize=auto;html=1;" parent="1" source="k02kRNxkQUGaLdqgRuOq-24" target="k02kRNxkQUGaLdqgRuOq-3" edge="1">
          <mxGeometry relative="1" as="geometry" />
        </mxCell>
        <mxCell id="k02kRNxkQUGaLdqgRuOq-24" value="&lt;b&gt;S5&lt;/b&gt;&lt;br&gt;ER1 = 1&lt;br&gt;ER2 = 1&lt;br&gt;ER3 = 1&lt;br&gt;ER4 = 0&lt;br&gt;ER5 = 0&lt;br&gt;CTL_AU1[1..0] = XX&lt;br style=&quot;border-color: var(--border-color);&quot;&gt;CTL_AU2[1..0] = 10&lt;br&gt;ET1 = 0&lt;br&gt;ET2 = 0&lt;br&gt;ET3 = 0&lt;br&gt;ET4 = 1&lt;br&gt;ET5 = 0&lt;br&gt;ET6 = 0&lt;br&gt;ET7 = 1&lt;br&gt;ET8 = 0&lt;br&gt;ET9 = 1&lt;br&gt;ET10 = 0&lt;br&gt;ET11 = 1&lt;br&gt;ET12 = 1&lt;br&gt;DONE = 0&amp;nbsp;" style="ellipse;whiteSpace=wrap;html=1;" parent="1" vertex="1">
          <mxGeometry x="1000" y="641" width="160" height="320" as="geometry" />
        </mxCell>
        <mxCell id="k02kRNxkQUGaLdqgRuOq-27" value="" style="edgeStyle=orthogonalEdgeStyle;rounded=0;orthogonalLoop=1;jettySize=auto;html=1;" parent="1" source="k02kRNxkQUGaLdqgRuOq-25" target="k02kRNxkQUGaLdqgRuOq-24" edge="1">
          <mxGeometry relative="1" as="geometry" />
        </mxCell>
        <mxCell id="k02kRNxkQUGaLdqgRuOq-25" value="&lt;b&gt;S4&lt;/b&gt;&lt;br&gt;ER1 = 0&lt;br&gt;ER2 = 0&lt;br&gt;ER3 = 1&lt;br&gt;ER4 = 1&lt;br&gt;ER5 = 0&lt;br&gt;CTL_AU1[1..0] = 11&lt;br style=&quot;border-color: var(--border-color);&quot;&gt;CTL_AU2[1..0] = XX&lt;br&gt;ET1 = 1&lt;br&gt;ET2 = 0&lt;br&gt;ET3 = 1&lt;br&gt;ET4 = 0&lt;br&gt;ET5 = 0&lt;br&gt;ET6 = 0&lt;br&gt;ET7 = 0&lt;br&gt;ET8 = 1&lt;br&gt;ET9 = 0&lt;br&gt;ET10 = 0&lt;br&gt;ET11 = 0&lt;br&gt;ET12 = 0&lt;br&gt;DONE = 0&amp;nbsp;" style="ellipse;whiteSpace=wrap;html=1;" parent="1" vertex="1">
          <mxGeometry x="1000" y="120" width="160" height="320" as="geometry" />
        </mxCell>
        <mxCell id="sfHNWo-lo43olF50_qpY-2" value="" style="curved=1;endArrow=classic;html=1;rounded=0;exitX=0.5;exitY=0;exitDx=0;exitDy=0;" edge="1" parent="1" source="k02kRNxkQUGaLdqgRuOq-6">
          <mxGeometry width="50" height="50" relative="1" as="geometry">
            <mxPoint x="560" y="680" as="sourcePoint" />
            <mxPoint x="1070" y="630" as="targetPoint" />
            <Array as="points">
              <mxPoint x="280" y="540" />
              <mxPoint x="590" y="510" />
              <mxPoint x="890" y="550" />
            </Array>
          </mxGeometry>
        </mxCell>
      </root>
    </mxGraphModel>
  </diagram>
</mxfile>
